<svg xmlns="http://www.w3.org/2000/svg" xmlns:xlink="http://www.w3.org/1999/xlink" width="500" zoomAndPan="magnify" viewBox="0 0 375 374.999991" height="500" preserveAspectRatio="xMidYMid meet" version="1.0"><defs><g/><clipPath id="3ccceafaa1"><path d="M 133.707031 144 L 304.640625 144 L 304.640625 179.1875 L 133.707031 179.1875 Z M 133.707031 144 " clip-rule="nonzero"/></clipPath><clipPath id="738b0e8f6d"><path d="M 8.210938 166 L 123 166 L 123 195 L 8.210938 195 Z M 8.210938 166 " clip-rule="nonzero"/></clipPath><clipPath id="ecdc95c871"><path d="M 13 116.320312 L 355.554688 116.320312 L 355.554688 181 L 13 181 Z M 13 116.320312 " clip-rule="nonzero"/></clipPath><clipPath id="2a8c8a3b49"><path d="M 8.203125 210.277344 L 117.777344 210.277344 L 117.777344 231 L 8.203125 231 Z M 8.203125 210.277344 " clip-rule="nonzero"/></clipPath></defs><g clip-path="url(#3ccceafaa1)"><path fill="#000000" d="M 133.9375 179.1875 C 138.945312 159.273438 162.609375 156.859375 199 160.21875 C 191.636719 157.140625 183.402344 157.207031 174.570312 156.246094 C 204.488281 141.410156 234.109375 150.980469 251.757812 164.257812 C 280.574219 161.207031 295.960938 167.402344 304.632812 178.242188 C 300.335938 165.496094 282.585938 159.617188 254.203125 159.125 C 226.390625 141.371094 197.835938 140.835938 168.78125 152.113281 C 160.652344 154.582031 152.761719 157.285156 142.105469 156.792969 C 142.476562 157.738281 143.042969 158.578125 143.945312 159.125 C 135.574219 164.605469 133.710938 171.644531 133.9375 179.1875 Z M 133.9375 179.1875 " fill-opacity="1" fill-rule="evenodd"/></g><g clip-path="url(#738b0e8f6d)"><path fill="#000000" d="M 122.382812 188.585938 C 81.171875 191.859375 53.046875 187.964844 36.59375 184.066406 C 40.320312 184.070312 44.050781 183.96875 47.660156 183.785156 C 51.097656 183.605469 54.515625 183.355469 57.917969 183.054688 C 60.765625 182.800781 66.027344 182.273438 69.199219 181.863281 C 62.835938 180.835938 56.550781 179.535156 50.382812 178.117188 C 44.90625 176.859375 39.492188 175.472656 34.269531 173.847656 C 30.082031 172.546875 26.285156 170.832031 22.425781 169.210938 C 19.195312 167.855469 14.578125 165.507812 11.003906 167.550781 C 8.230469 169.140625 8.199219 172.402344 8.4375 174.566406 C 9.109375 180.683594 18.265625 184.296875 23.09375 186.492188 C 28.980469 189.171875 35.238281 190.980469 41.578125 192.230469 C 54.609375 194.800781 68.050781 195.097656 81.28125 194.351562 C 91.84375 193.738281 102.332031 192.472656 112.742188 190.5625 C 115.878906 189.992188 119.128906 189.296875 122.382812 188.585938 Z M 122.382812 188.585938 " fill-opacity="1" fill-rule="nonzero"/></g><g clip-path="url(#ecdc95c871)"><path fill="#000000" d="M 351.535156 157.746094 C 349.570312 156.847656 347.5625 155.996094 345.503906 155.199219 C 343.074219 154.257812 340.597656 153.382812 338.066406 152.582031 C 331.8125 150.613281 325.457031 149.0625 319 147.929688 C 312.425781 146.78125 305.808594 145.972656 299.152344 145.496094 C 297.484375 145.378906 295.8125 145.25 294.144531 145.171875 L 291.632812 145.039062 L 289.125 144.945312 C 288.289062 144.914062 287.449219 144.882812 286.613281 144.863281 L 284.101562 144.816406 C 282.425781 144.773438 280.753906 144.777344 279.082031 144.765625 C 278.242188 144.757812 277.40625 144.761719 276.570312 144.769531 L 274.0625 144.785156 C 272.390625 144.804688 270.722656 144.839844 269.054688 144.871094 L 264.054688 145.027344 C 262.390625 145.09375 260.722656 145.152344 259.0625 145.230469 C 255.738281 145.382812 252.421875 145.554688 249.109375 145.746094 C 247.453125 145.84375 245.800781 145.949219 244.148438 146.058594 L 239.191406 146.386719 C 225.992188 147.277344 212.839844 148.378906 199.726562 149.484375 C 186.617188 150.585938 173.542969 151.714844 160.484375 152.648438 C 153.957031 153.128906 147.433594 153.546875 140.914062 153.90625 C 134.394531 154.265625 127.882812 154.566406 121.371094 154.757812 C 114.863281 154.949219 108.363281 155.089844 101.871094 155.058594 C 101.058594 155.058594 100.246094 155.066406 99.4375 155.058594 L 97.007812 155.035156 C 95.386719 155.011719 93.761719 155.011719 92.144531 154.960938 L 87.289062 154.847656 L 82.441406 154.667969 C 77.335938 154.453125 72.246094 154.152344 67.164062 153.769531 C 68.851562 153.109375 70.511719 152.433594 72.148438 151.734375 C 80.722656 148.085938 88.710938 144.039062 96.652344 140.199219 C 104.589844 136.359375 112.496094 132.707031 120.773438 129.851562 C 121.8125 129.503906 122.84375 129.140625 123.890625 128.820312 C 124.414062 128.660156 124.933594 128.484375 125.460938 128.332031 L 127.046875 127.878906 C 128.105469 127.578125 129.160156 127.257812 130.242188 127.007812 L 131.859375 126.601562 C 132.398438 126.46875 132.929688 126.320312 133.476562 126.210938 L 136.753906 125.492188 L 140.066406 124.875 C 140.34375 124.824219 140.621094 124.765625 140.898438 124.722656 L 141.738281 124.59375 L 143.414062 124.332031 C 143.972656 124.25 144.53125 124.148438 145.09375 124.082031 L 146.785156 123.871094 L 148.480469 123.65625 C 149.042969 123.589844 149.613281 123.546875 150.183594 123.488281 L 151.886719 123.320312 L 152.742188 123.238281 L 153.597656 123.175781 C 154.742188 123.097656 155.886719 123.003906 157.03125 122.933594 L 160.484375 122.777344 C 165.09375 122.617188 169.726562 122.660156 174.367188 122.851562 C 175.527344 122.914062 176.691406 122.949219 177.851562 123.027344 L 181.332031 123.261719 C 183.648438 123.460938 185.96875 123.660156 188.28125 123.933594 C 192.910156 124.453125 197.53125 125.085938 202.121094 125.875 C 211.296875 127.449219 220.382812 129.472656 229.324219 131.867188 C 238.285156 134.234375 247.082031 136.988281 255.816406 139.90625 C 251.738281 138.035156 247.589844 136.253906 243.367188 134.550781 C 239.15625 132.835938 234.863281 131.234375 230.511719 129.710938 C 221.671875 126.605469 212.6875 123.988281 203.566406 121.855469 C 194.164062 119.65625 184.660156 118.109375 175.046875 117.210938 C 170.183594 116.769531 165.277344 116.527344 160.335938 116.480469 C 155.398438 116.429688 150.441406 116.628906 145.503906 117.0625 L 143.652344 117.226562 C 143.035156 117.273438 142.421875 117.363281 141.804688 117.425781 L 139.039062 117.753906 C 138.730469 117.789062 138.425781 117.839844 138.117188 117.882812 L 134.445312 118.429688 L 130.800781 119.082031 C 130.191406 119.183594 129.59375 119.324219 128.988281 119.449219 L 127.1875 119.835938 C 125.976562 120.078125 124.792969 120.390625 123.605469 120.683594 L 121.820312 121.128906 C 121.226562 121.285156 120.644531 121.453125 120.058594 121.617188 C 118.875 121.9375 117.722656 122.292969 116.566406 122.644531 C 115.984375 122.816406 115.417969 123.007812 114.84375 123.191406 C 114.273438 123.375 113.699219 123.558594 113.132812 123.75 C 112.011719 124.144531 110.871094 124.519531 109.765625 124.929688 L 108.09375 125.539062 L 106.445312 126.164062 C 105.339844 126.574219 104.265625 127.015625 103.179688 127.445312 C 98.855469 129.1875 94.664062 131.027344 90.539062 132.894531 L 78.328125 138.476562 C 74.292969 140.308594 70.261719 142.070312 66.207031 143.722656 C 62.148438 145.367188 58.046875 146.859375 53.894531 148.164062 C 49.742188 149.453125 45.53125 150.5 41.257812 151.304688 L 13.878906 156.445312 L 41.574219 160.59375 C 48.210938 161.585938 54.878906 162.402344 61.585938 163.035156 C 68.285156 163.664062 75.007812 164.078125 81.726562 164.375 C 95.171875 164.925781 108.613281 164.855469 121.964844 164.332031 C 148.6875 163.300781 175.035156 160.578125 201.160156 157.679688 C 205.257812 157.226562 209.351562 156.765625 213.441406 156.304688 C 207.75 157.484375 202.082031 158.710938 196.433594 159.992188 L 176.9375 164.464844 C 170.453125 165.972656 163.960938 167.421875 157.46875 168.820312 L 152.597656 169.855469 C 150.972656 170.199219 149.347656 170.53125 147.71875 170.859375 L 142.835938 171.832031 L 140.394531 172.316406 L 137.976562 172.765625 C 131.523438 173.910156 124.984375 174.734375 118.410156 175.289062 C 105.1875 176.34375 91.960938 176.421875 78.722656 175.515625 C 65.414062 174.621094 52.222656 172.859375 39.144531 170.230469 C 51.867188 174.253906 65.042969 177.019531 78.375 178.792969 C 91.792969 180.550781 105.257812 181.140625 118.777344 180.5625 C 125.558594 180.261719 132.304688 179.613281 139.019531 178.613281 L 141.539062 178.214844 L 144.019531 177.796875 C 145.675781 177.523438 147.328125 177.230469 148.976562 176.925781 C 150.625 176.632812 152.277344 176.328125 153.921875 176.011719 L 158.859375 175.0625 C 165.4375 173.78125 171.980469 172.367188 178.511719 170.945312 L 198.039062 166.558594 C 204.53125 165.082031 211.019531 163.632812 217.515625 162.28125 C 224.007812 160.902344 230.511719 159.648438 237.035156 158.519531 C 243.554688 157.375 250.101562 156.417969 256.667969 155.59375 L 261.597656 155.023438 L 266.539062 154.527344 L 271.484375 154.089844 L 276.4375 153.726562 L 281.398438 153.4375 L 286.367188 153.207031 C 289.695312 153.074219 293.019531 152.972656 296.34375 152.882812 C 302.988281 152.722656 309.628906 152.695312 316.257812 152.933594 C 326.082031 153.265625 335.910156 154.253906 345.550781 156.316406 C 348.941406 157.316406 352.273438 158.445312 355.546875 159.699219 C 354.234375 159.023438 352.898438 158.371094 351.535156 157.746094 Z M 351.535156 157.746094 " fill-opacity="1" fill-rule="nonzero"/></g><path fill="#000000" d="M 270.976562 191.503906 C 271.8125 187.3125 273.378906 183.417969 275.671875 179.8125 C 277.996094 176.132812 280.867188 172.949219 284.289062 170.253906 C 287.753906 167.527344 291.574219 165.453125 295.75 164.03125 C 296.789062 163.679688 297.851562 163.410156 298.90625 163.101562 C 299.976562 162.863281 301.058594 162.660156 302.132812 162.4375 C 303.222656 162.296875 304.316406 162.179688 305.40625 162.054688 L 307.050781 161.964844 C 307.601562 161.941406 308.152344 161.945312 308.699219 161.9375 C 310.90625 161.957031 313.09375 162.15625 315.265625 162.523438 C 317.433594 162.90625 319.554688 163.464844 321.628906 164.199219 C 325.789062 165.671875 329.582031 167.792969 333.011719 170.570312 C 336.398438 173.304688 339.230469 176.53125 341.503906 180.242188 C 343.742188 183.882812 345.246094 187.804688 346.015625 192.007812 C 345.15625 190.132812 344.183594 188.316406 343.09375 186.558594 C 342.023438 184.835938 340.839844 183.195312 339.539062 181.636719 C 336.980469 178.558594 334.039062 175.898438 330.714844 173.660156 C 329.097656 172.566406 327.40625 171.597656 325.644531 170.75 C 323.882812 169.90625 322.066406 169.195312 320.199219 168.617188 C 318.332031 168.035156 316.433594 167.597656 314.5 167.300781 C 312.570312 167 310.625 166.84375 308.671875 166.832031 C 306.71875 166.816406 304.773438 166.949219 302.835938 167.222656 C 300.902344 167.496094 298.996094 167.90625 297.121094 168.460938 C 295.246094 169.015625 293.421875 169.703125 291.648438 170.523438 C 289.875 171.347656 288.171875 172.292969 286.539062 173.367188 C 283.1875 175.5625 280.210938 178.179688 277.609375 181.226562 C 274.941406 184.355469 272.730469 187.78125 270.976562 191.503906 Z M 270.976562 191.503906 " fill-opacity="1" fill-rule="nonzero"/><g clip-path="url(#2a8c8a3b49)"><path fill="#000000" d="M 8.25 210.277344 C 41.574219 226.34375 69.371094 228.652344 104.242188 215.652344 C 108.265625 214.214844 113.738281 211.917969 117.734375 210.277344 C 115.8125 211.800781 113.839844 213.257812 111.804688 214.625 C 79.375 236.570312 38.433594 236.019531 8.25 210.277344 Z M 8.25 210.277344 " fill-opacity="1" fill-rule="nonzero"/></g><g fill="#000000" fill-opacity="1"><g transform="translate(128.07929, 219.954508)"><g><path d="M 17.28125 -26.09375 L 10.96875 -26.09375 L 7.828125 -0.59375 C 7.734375 0.101562 7.285156 0.453125 6.484375 0.453125 C 5.691406 0.453125 5.296875 0.148438 5.296875 -0.453125 C 5.296875 -0.546875 6.347656 -9.09375 8.453125 -26.09375 L 2.265625 -26.09375 C 1.535156 -26.09375 1.171875 -26.375 1.171875 -26.9375 C 1.171875 -27.75 1.578125 -28.15625 2.390625 -28.15625 L 17.421875 -28.15625 C 18.117188 -28.15625 18.46875 -27.859375 18.46875 -27.265625 C 18.46875 -26.484375 18.070312 -26.09375 17.28125 -26.09375 Z M 17.28125 -26.09375 "/></g></g></g><g fill="#000000" fill-opacity="1"><g transform="translate(144.928953, 219.954508)"><g><path d="M 7.71875 -27.765625 C 7.71875 -27.710938 7.238281 -23.816406 6.28125 -16.078125 L 19.21875 -16.078125 C 19.34375 -17.535156 19.8125 -21.34375 20.625 -27.5 C 20.707031 -28.195312 21.148438 -28.546875 21.953125 -28.546875 C 22.765625 -28.546875 23.171875 -28.285156 23.171875 -27.765625 C 23.171875 -27.691406 22.0625 -18.632812 19.84375 -0.59375 C 19.75 0.101562 19.300781 0.453125 18.5 0.453125 C 17.707031 0.453125 17.3125 0.148438 17.3125 -0.453125 C 17.3125 -0.523438 17.859375 -5.046875 18.953125 -14.015625 L 6.0625 -14.015625 L 4.390625 -0.59375 C 4.296875 0.101562 3.847656 0.453125 3.046875 0.453125 C 2.253906 0.453125 1.859375 0.148438 1.859375 -0.453125 C 1.859375 -0.523438 2.960938 -9.539062 5.171875 -27.5 C 5.253906 -28.195312 5.695312 -28.546875 6.5 -28.546875 C 7.3125 -28.546875 7.71875 -28.285156 7.71875 -27.765625 Z M 7.71875 -27.765625 "/></g></g></g><g fill="#000000" fill-opacity="1"><g transform="translate(169.925343, 219.954508)"><g><path d="M 3.078125 0.453125 C 2.265625 0.453125 1.859375 0.179688 1.859375 -0.359375 L 1.859375 -0.484375 L 5.171875 -27.296875 C 5.234375 -27.734375 5.53125 -27.984375 6.0625 -28.046875 C 7.675781 -28.378906 9.800781 -28.546875 12.4375 -28.546875 C 15.082031 -28.546875 17.164062 -28.007812 18.6875 -26.9375 C 20.21875 -25.875 20.984375 -24.289062 20.984375 -22.1875 C 20.984375 -20.425781 20.359375 -18.890625 19.109375 -17.578125 C 17.867188 -16.265625 16.171875 -15.40625 14.015625 -15 C 15.453125 -14.382812 16.5625 -13.203125 17.34375 -11.453125 C 17.71875 -10.578125 18.070312 -9.609375 18.40625 -8.546875 C 18.75 -7.492188 18.960938 -6.847656 19.046875 -6.609375 L 21.078125 -0.6875 C 21.097656 -0.625 21.109375 -0.5 21.109375 -0.3125 C 21.109375 -0.125 20.984375 0.046875 20.734375 0.203125 C 20.484375 0.367188 20.171875 0.453125 19.796875 0.453125 C 19.128906 0.453125 18.71875 0.210938 18.5625 -0.265625 L 16.265625 -7 C 15.679688 -8.75 15.15625 -10.117188 14.6875 -11.109375 C 14.21875 -12.109375 13.660156 -12.8125 13.015625 -13.21875 C 12.367188 -13.632812 11.269531 -13.84375 9.71875 -13.84375 L 5.984375 -13.84375 L 4.359375 -0.421875 C 4.304688 -0.0976562 4.179688 0.125 3.984375 0.25 C 3.796875 0.382812 3.492188 0.453125 3.078125 0.453125 Z M 10.109375 -16 C 11.859375 -16 13.609375 -16.457031 15.359375 -17.375 C 16.222656 -17.832031 16.929688 -18.476562 17.484375 -19.3125 C 18.046875 -20.144531 18.328125 -21.082031 18.328125 -22.125 C 18.328125 -23.5 17.753906 -24.578125 16.609375 -25.359375 C 15.460938 -26.148438 14.023438 -26.546875 12.296875 -26.546875 C 10.578125 -26.546875 8.988281 -26.414062 7.53125 -26.15625 L 6.28125 -16 Z M 10.109375 -16 "/></g></g></g><g fill="#000000" fill-opacity="1"><g transform="translate(192.795074, 219.954508)"><g><path d="M 4.390625 -0.59375 C 4.296875 0.101562 3.847656 0.453125 3.046875 0.453125 C 2.253906 0.453125 1.859375 0.148438 1.859375 -0.453125 C 1.859375 -0.523438 2.960938 -9.539062 5.171875 -27.5 C 5.253906 -28.195312 5.695312 -28.546875 6.5 -28.546875 C 7.3125 -28.546875 7.71875 -28.285156 7.71875 -27.765625 C 7.71875 -27.691406 6.609375 -18.632812 4.390625 -0.59375 Z M 4.390625 -0.59375 "/></g></g></g><g fill="#000000" fill-opacity="1"><g transform="translate(202.381386, 219.954508)"><g><path d="M 2.1875 -27.46875 L 2.15625 -27.71875 C 2.15625 -28.269531 2.570312 -28.546875 3.40625 -28.546875 C 3.84375 -28.546875 4.171875 -28.476562 4.390625 -28.34375 C 4.609375 -28.21875 4.75 -27.96875 4.8125 -27.59375 L 8.515625 -3.234375 L 17.734375 -25.46875 C 17.804688 -25.644531 17.921875 -25.925781 18.078125 -26.3125 C 18.242188 -26.707031 18.367188 -27.015625 18.453125 -27.234375 C 18.546875 -27.453125 18.660156 -27.679688 18.796875 -27.921875 C 19.054688 -28.335938 19.347656 -28.546875 19.671875 -28.546875 C 20.003906 -28.546875 20.328125 -28.457031 20.640625 -28.28125 C 20.953125 -28.101562 21.109375 -27.832031 21.109375 -27.46875 C 21.109375 -27.113281 20.628906 -25.8125 19.671875 -23.5625 L 9.984375 -0.484375 C 9.722656 0.140625 9.109375 0.453125 8.140625 0.453125 C 7.179688 0.453125 6.640625 0.140625 6.515625 -0.484375 Z M 2.1875 -27.46875 "/></g></g></g><g fill="#000000" fill-opacity="1"><g transform="translate(222.797276, 219.954508)"><g><path d="M 5.921875 -28.15625 L 18.5625 -28.15625 C 19.238281 -28.15625 19.578125 -27.859375 19.578125 -27.265625 C 19.578125 -26.828125 19.488281 -26.519531 19.3125 -26.34375 C 19.132812 -26.175781 18.816406 -26.09375 18.359375 -26.09375 L 7.359375 -26.09375 L 6.28125 -15.84375 L 15.359375 -15.84375 C 16.117188 -15.84375 16.5 -15.5625 16.5 -15 C 16.5 -14.5625 16.40625 -14.25 16.21875 -14.0625 C 16.03125 -13.875 15.707031 -13.78125 15.25 -13.78125 L 5.984375 -13.78125 L 4.546875 -2.09375 L 16.234375 -2.09375 C 16.804688 -2.09375 17.09375 -1.765625 17.09375 -1.109375 C 17.09375 -0.785156 17.003906 -0.519531 16.828125 -0.3125 C 16.648438 -0.101562 16.429688 0 16.171875 0 L 2.953125 0 C 2.222656 0 1.859375 -0.28125 1.859375 -0.84375 C 1.859375 -0.976562 1.875 -1.144531 1.90625 -1.34375 L 5.015625 -27.03125 C 5.078125 -27.78125 5.378906 -28.15625 5.921875 -28.15625 Z M 5.921875 -28.15625 "/></g></g></g><g fill="#f61414" fill-opacity="1"><g transform="translate(244.220732, 221.366568)"><g><path d="M 16.90625 -27.578125 C 19.34375 -27.578125 21.410156 -27.148438 23.109375 -26.296875 C 24.816406 -25.453125 26.109375 -24.238281 26.984375 -22.65625 C 27.859375 -21.082031 28.296875 -19.203125 28.296875 -17.015625 C 28.296875 -15.796875 28.140625 -14.421875 27.828125 -12.890625 C 26.921875 -8.648438 25.117188 -5.441406 22.421875 -3.265625 C 19.734375 -1.085938 16.023438 0 11.296875 0 L 1.375 0 L 7.21875 -27.578125 Z M 22.390625 -13.796875 C 22.628906 -14.898438 22.75 -15.914062 22.75 -16.84375 C 22.75 -18.90625 22.164062 -20.445312 21 -21.46875 C 19.832031 -22.488281 18.125 -23 15.875 -23 L 11.703125 -23 L 7.8125 -4.578125 L 11.9375 -4.578125 C 14.726562 -4.578125 16.992188 -5.304688 18.734375 -6.765625 C 20.484375 -8.234375 21.703125 -10.578125 22.390625 -13.796875 Z M 22.390625 -13.796875 "/></g></g></g><g fill="#f61414" fill-opacity="1"><g transform="translate(273.711416, 221.366568)"><g><path d="M 1.375 0 L 7.21875 -27.578125 L 17.734375 -27.578125 C 19.347656 -27.578125 20.734375 -27.332031 21.890625 -26.84375 C 23.046875 -26.351562 23.925781 -25.644531 24.53125 -24.71875 C 25.132812 -23.800781 25.4375 -22.703125 25.4375 -21.421875 C 25.4375 -20.796875 25.359375 -20.132812 25.203125 -19.4375 C 24.878906 -17.863281 24.140625 -16.546875 22.984375 -15.484375 C 21.835938 -14.429688 20.445312 -13.785156 18.8125 -13.546875 L 18.71875 -13.15625 C 19.53125 -12.757812 20.132812 -12.191406 20.53125 -11.453125 C 20.925781 -10.722656 21.207031 -9.644531 21.375 -8.21875 L 21.71875 -5.375 L 22.390625 0 L 16.90625 0 L 16.8125 -0.78125 C 16.707031 -1.601562 16.582031 -2.632812 16.4375 -3.875 C 16.289062 -5.125 16.132812 -6.582031 15.96875 -8.25 C 15.863281 -9.070312 15.6875 -9.710938 15.4375 -10.171875 C 15.1875 -10.640625 14.8125 -10.972656 14.3125 -11.171875 C 13.820312 -11.378906 13.148438 -11.484375 12.296875 -11.484375 L 9.265625 -11.484375 L 6.828125 0 Z M 15.15625 -15.8125 C 16.53125 -15.8125 17.59375 -16.101562 18.34375 -16.6875 C 19.101562 -17.28125 19.613281 -18.171875 19.875 -19.359375 C 19.957031 -19.742188 20 -20.117188 20 -20.484375 C 20 -21.421875 19.707031 -22.117188 19.125 -22.578125 C 18.539062 -23.035156 17.707031 -23.265625 16.625 -23.265625 L 11.765625 -23.265625 L 10.1875 -15.8125 Z M 15.15625 -15.8125 "/></g></g></g><g fill="#f61414" fill-opacity="1"><g transform="translate(299.503974, 221.366568)"><g><path d="M 6.828125 0 L 1.375 0 L 7.21875 -27.578125 L 12.671875 -27.578125 Z M 6.828125 0 "/></g></g></g><g fill="#f61414" fill-opacity="1"><g transform="translate(312.126671, 221.366568)"><g><path d="M 14.265625 0 L 7.609375 0 L 4.125 -27.578125 L 9.71875 -27.578125 L 11.90625 -7.015625 L 12.375 -7.015625 L 23.265625 -27.578125 L 29.34375 -27.578125 Z M 14.265625 0 "/></g></g></g><g fill="#f61414" fill-opacity="1"><g transform="translate(338.315447, 221.366568)"><g><path d="M 25.546875 -27.578125 L 24.578125 -23.015625 L 11.71875 -23.015625 L 10.34375 -16.5625 L 21.578125 -16.5625 L 20.640625 -12.109375 L 9.390625 -12.109375 L 7.796875 -4.5625 L 20.96875 -4.5625 L 20 0 L 1.375 0 L 7.21875 -27.578125 Z M 25.546875 -27.578125 "/></g></g></g><g fill="#000000" fill-opacity="1"><g transform="translate(126.036061, 240.391124)"><g><path d="M 4.203125 0.125 C 3.203125 0.125 2.445312 -0.128906 1.9375 -0.640625 C 1.425781 -1.148438 1.171875 -1.90625 1.171875 -2.90625 L 1.171875 -8.171875 L 2.125 -8.171875 L 2.125 -2.921875 C 2.125 -2.203125 2.296875 -1.660156 2.640625 -1.296875 C 2.984375 -0.941406 3.503906 -0.765625 4.203125 -0.765625 C 5.597656 -0.765625 6.296875 -1.484375 6.296875 -2.921875 L 6.296875 -8.171875 L 7.25 -8.171875 L 7.25 -2.90625 C 7.25 -1.90625 6.992188 -1.148438 6.484375 -0.640625 C 5.972656 -0.128906 5.210938 0.125 4.203125 0.125 Z M 4.203125 0.125 "/></g></g></g><g fill="#000000" fill-opacity="1"><g transform="translate(138.587309, 240.391124)"><g><path d="M 2.171875 0 L 1.234375 0 L 1.234375 -8.171875 L 2.40625 -8.171875 L 6.390625 -1.921875 L 6.53125 -1.953125 L 6.53125 -8.171875 L 7.46875 -8.171875 L 7.46875 0 L 6.46875 0 L 2.3125 -6.671875 L 2.171875 -6.65625 Z M 2.171875 0 "/></g></g></g><g fill="#000000" fill-opacity="1"><g transform="translate(151.42884, 240.391124)"><g><path d="M 2.1875 -8.171875 L 2.1875 -0.796875 L 6.125 -0.796875 L 6.125 0 L 1.234375 0 L 1.234375 -8.171875 Z M 2.1875 -8.171875 "/></g></g></g><g fill="#000000" fill-opacity="1"><g transform="translate(162.037425, 240.391124)"><g><path d="M 2.1875 -3.84375 L 2.1875 -0.796875 L 6.359375 -0.796875 L 6.359375 0 L 1.234375 0 L 1.234375 -8.171875 L 6.265625 -8.171875 L 6.265625 -7.375 L 2.1875 -7.375 L 2.1875 -4.640625 L 5.78125 -4.640625 L 5.78125 -3.84375 Z M 2.1875 -3.84375 "/></g></g></g><g fill="#000000" fill-opacity="1"><g transform="translate(173.070273, 240.391124)"><g><path d="M 7.34375 0 L 6.328125 0 L 5.5625 -2.234375 L 2.09375 -2.234375 L 1.328125 0 L 0.328125 0 L 3.171875 -8.171875 L 4.5 -8.171875 Z M 3.765625 -7.171875 L 2.359375 -3.046875 L 5.296875 -3.046875 L 3.890625 -7.171875 Z M 3.765625 -7.171875 "/></g></g></g><g fill="#000000" fill-opacity="1"><g transform="translate(184.879069, 240.391124)"><g><path d="M 3.5625 0.125 C 3.050781 0.125 2.59375 0.0546875 2.1875 -0.078125 C 1.78125 -0.222656 1.441406 -0.410156 1.171875 -0.640625 C 0.898438 -0.867188 0.695312 -1.117188 0.5625 -1.390625 L 1.078125 -2.03125 L 1.21875 -2.03125 C 1.726562 -1.175781 2.507812 -0.75 3.5625 -0.75 C 4.175781 -0.75 4.632812 -0.875 4.9375 -1.125 C 5.238281 -1.382812 5.390625 -1.742188 5.390625 -2.203125 C 5.390625 -2.472656 5.335938 -2.703125 5.234375 -2.890625 C 5.140625 -3.078125 4.976562 -3.234375 4.75 -3.359375 C 4.519531 -3.492188 4.210938 -3.609375 3.828125 -3.703125 L 2.875 -3.9375 C 2.15625 -4.113281 1.628906 -4.390625 1.296875 -4.765625 C 0.960938 -5.140625 0.796875 -5.613281 0.796875 -6.1875 C 0.796875 -6.59375 0.898438 -6.953125 1.109375 -7.265625 C 1.316406 -7.585938 1.617188 -7.835938 2.015625 -8.015625 C 2.421875 -8.191406 2.90625 -8.28125 3.46875 -8.28125 C 4.082031 -8.28125 4.597656 -8.191406 5.015625 -8.015625 C 5.441406 -7.847656 5.78125 -7.59375 6.03125 -7.25 L 5.5625 -6.609375 L 5.421875 -6.609375 C 5.191406 -6.898438 4.914062 -7.109375 4.59375 -7.234375 C 4.269531 -7.367188 3.894531 -7.4375 3.46875 -7.4375 C 2.894531 -7.4375 2.460938 -7.328125 2.171875 -7.109375 C 1.890625 -6.890625 1.75 -6.585938 1.75 -6.203125 C 1.75 -5.835938 1.851562 -5.546875 2.0625 -5.328125 C 2.28125 -5.109375 2.640625 -4.9375 3.140625 -4.8125 L 4.109375 -4.578125 C 4.910156 -4.398438 5.488281 -4.117188 5.84375 -3.734375 C 6.195312 -3.347656 6.375 -2.851562 6.375 -2.25 C 6.375 -1.789062 6.269531 -1.378906 6.0625 -1.015625 C 5.851562 -0.660156 5.535156 -0.378906 5.109375 -0.171875 C 4.691406 0.0234375 4.175781 0.125 3.5625 0.125 Z M 3.5625 0.125 "/></g></g></g><g fill="#000000" fill-opacity="1"><g transform="translate(196.012399, 240.391124)"><g><path d="M 6.4375 -4.859375 L 6.4375 -8.171875 L 7.390625 -8.171875 L 7.390625 0 L 6.4375 0 L 6.4375 -4.03125 L 2.1875 -4.03125 L 2.1875 0 L 1.234375 0 L 1.234375 -8.171875 L 2.1875 -8.171875 L 2.1875 -4.859375 Z M 6.4375 -4.859375 "/></g></g></g><g fill="#000000" fill-opacity="1"><g transform="translate(208.781361, 240.391124)"><g/></g></g><g fill="#000000" fill-opacity="1"><g transform="translate(215.722337, 240.391124)"><g><path d="M 3.984375 0 L 3.03125 0 L 3.03125 -3.203125 L 0.21875 -8.171875 L 1.265625 -8.171875 L 3.46875 -4.34375 L 3.609375 -4.34375 L 5.78125 -8.171875 L 6.8125 -8.171875 L 3.984375 -3.203125 Z M 3.984375 0 "/></g></g></g><g fill="#000000" fill-opacity="1"><g transform="translate(226.877997, 240.391124)"><g><path d="M 4.484375 0.125 C 3.773438 0.125 3.144531 -0.0234375 2.59375 -0.328125 C 2.039062 -0.640625 1.601562 -1.109375 1.28125 -1.734375 C 0.96875 -2.367188 0.8125 -3.148438 0.8125 -4.078125 C 0.8125 -5.015625 0.96875 -5.796875 1.28125 -6.421875 C 1.601562 -7.046875 2.039062 -7.507812 2.59375 -7.8125 C 3.144531 -8.125 3.773438 -8.28125 4.484375 -8.28125 C 5.191406 -8.28125 5.816406 -8.125 6.359375 -7.8125 C 6.910156 -7.507812 7.34375 -7.046875 7.65625 -6.421875 C 7.976562 -5.796875 8.140625 -5.015625 8.140625 -4.078125 C 8.140625 -3.148438 7.976562 -2.367188 7.65625 -1.734375 C 7.34375 -1.109375 6.910156 -0.640625 6.359375 -0.328125 C 5.816406 -0.0234375 5.191406 0.125 4.484375 0.125 Z M 4.484375 -0.765625 C 5.328125 -0.765625 5.972656 -1.03125 6.421875 -1.5625 C 6.878906 -2.09375 7.109375 -2.929688 7.109375 -4.078125 C 7.109375 -5.222656 6.878906 -6.0625 6.421875 -6.59375 C 5.972656 -7.125 5.328125 -7.390625 4.484375 -7.390625 C 2.722656 -7.390625 1.84375 -6.285156 1.84375 -4.078125 C 1.84375 -1.867188 2.722656 -0.765625 4.484375 -0.765625 Z M 4.484375 -0.765625 "/></g></g></g><g fill="#000000" fill-opacity="1"><g transform="translate(239.970736, 240.391124)"><g><path d="M 4.203125 0.125 C 3.203125 0.125 2.445312 -0.128906 1.9375 -0.640625 C 1.425781 -1.148438 1.171875 -1.90625 1.171875 -2.90625 L 1.171875 -8.171875 L 2.125 -8.171875 L 2.125 -2.921875 C 2.125 -2.203125 2.296875 -1.660156 2.640625 -1.296875 C 2.984375 -0.941406 3.503906 -0.765625 4.203125 -0.765625 C 5.597656 -0.765625 6.296875 -1.484375 6.296875 -2.921875 L 6.296875 -8.171875 L 7.25 -8.171875 L 7.25 -2.90625 C 7.25 -1.90625 6.992188 -1.148438 6.484375 -0.640625 C 5.972656 -0.128906 5.210938 0.125 4.203125 0.125 Z M 4.203125 0.125 "/></g></g></g><g fill="#000000" fill-opacity="1"><g transform="translate(252.521986, 240.391124)"><g><path d="M 1.234375 0 L 1.234375 -8.171875 L 4.203125 -8.171875 C 4.742188 -8.171875 5.203125 -8.078125 5.578125 -7.890625 C 5.953125 -7.710938 6.234375 -7.457031 6.421875 -7.125 C 6.609375 -6.800781 6.703125 -6.410156 6.703125 -5.953125 C 6.703125 -5.453125 6.570312 -5.035156 6.3125 -4.703125 C 6.0625 -4.367188 5.664062 -4.125 5.125 -3.96875 L 5.125 -3.84375 C 5.394531 -3.738281 5.613281 -3.570312 5.78125 -3.34375 C 5.945312 -3.125 6.101562 -2.796875 6.25 -2.359375 L 7 0 L 6.015625 0 L 5.1875 -2.5 C 5.09375 -2.789062 4.984375 -3.019531 4.859375 -3.1875 C 4.734375 -3.351562 4.570312 -3.472656 4.375 -3.546875 C 4.1875 -3.617188 3.941406 -3.65625 3.640625 -3.65625 L 2.1875 -3.65625 L 2.1875 0 Z M 4.171875 -4.484375 C 4.679688 -4.484375 5.0625 -4.597656 5.3125 -4.828125 C 5.5625 -5.066406 5.6875 -5.429688 5.6875 -5.921875 C 5.6875 -6.398438 5.5625 -6.753906 5.3125 -6.984375 C 5.0625 -7.222656 4.679688 -7.34375 4.171875 -7.34375 L 2.1875 -7.34375 L 2.1875 -4.484375 Z M 4.171875 -4.484375 "/></g></g></g><g fill="#000000" fill-opacity="1"><g transform="translate(264.219128, 240.391124)"><g/></g></g><g fill="#000000" fill-opacity="1"><g transform="translate(271.160097, 240.391124)"><g><path d="M 3.875 -8.171875 C 4.695312 -8.171875 5.40625 -8.019531 6 -7.71875 C 6.59375 -7.425781 7.050781 -6.972656 7.375 -6.359375 C 7.695312 -5.753906 7.859375 -4.992188 7.859375 -4.078125 C 7.859375 -3.160156 7.695312 -2.398438 7.375 -1.796875 C 7.050781 -1.191406 6.59375 -0.738281 6 -0.4375 C 5.40625 -0.144531 4.695312 0 3.875 0 L 1.234375 0 L 1.234375 -8.171875 Z M 3.78125 -0.8125 C 4.457031 -0.8125 5.019531 -0.914062 5.46875 -1.125 C 5.914062 -1.34375 6.253906 -1.691406 6.484375 -2.171875 C 6.710938 -2.648438 6.828125 -3.285156 6.828125 -4.078125 C 6.828125 -4.878906 6.710938 -5.519531 6.484375 -6 C 6.253906 -6.476562 5.914062 -6.820312 5.46875 -7.03125 C 5.019531 -7.238281 4.457031 -7.34375 3.78125 -7.34375 L 2.1875 -7.34375 L 2.1875 -0.8125 Z M 3.78125 -0.8125 "/></g></g></g><g fill="#000000" fill-opacity="1"><g transform="translate(283.973711, 240.391124)"><g><path d="M 1.234375 0 L 1.234375 -8.171875 L 4.203125 -8.171875 C 4.742188 -8.171875 5.203125 -8.078125 5.578125 -7.890625 C 5.953125 -7.710938 6.234375 -7.457031 6.421875 -7.125 C 6.609375 -6.800781 6.703125 -6.410156 6.703125 -5.953125 C 6.703125 -5.453125 6.570312 -5.035156 6.3125 -4.703125 C 6.0625 -4.367188 5.664062 -4.125 5.125 -3.96875 L 5.125 -3.84375 C 5.394531 -3.738281 5.613281 -3.570312 5.78125 -3.34375 C 5.945312 -3.125 6.101562 -2.796875 6.25 -2.359375 L 7 0 L 6.015625 0 L 5.1875 -2.5 C 5.09375 -2.789062 4.984375 -3.019531 4.859375 -3.1875 C 4.734375 -3.351562 4.570312 -3.472656 4.375 -3.546875 C 4.1875 -3.617188 3.941406 -3.65625 3.640625 -3.65625 L 2.1875 -3.65625 L 2.1875 0 Z M 4.171875 -4.484375 C 4.679688 -4.484375 5.0625 -4.597656 5.3125 -4.828125 C 5.5625 -5.066406 5.6875 -5.429688 5.6875 -5.921875 C 5.6875 -6.398438 5.5625 -6.753906 5.3125 -6.984375 C 5.0625 -7.222656 4.679688 -7.34375 4.171875 -7.34375 L 2.1875 -7.34375 L 2.1875 -4.484375 Z M 4.171875 -4.484375 "/></g></g></g><g fill="#000000" fill-opacity="1"><g transform="translate(295.670852, 240.391124)"><g><path d="M 2.1875 0 L 1.234375 0 L 1.234375 -8.171875 L 2.1875 -8.171875 Z M 2.1875 0 "/></g></g></g><g fill="#000000" fill-opacity="1"><g transform="translate(303.242628, 240.391124)"><g><path d="M 4.453125 0 L 3.1875 0 L 0.359375 -8.171875 L 1.375 -8.171875 L 3.765625 -1.203125 L 3.90625 -1.203125 L 6.28125 -8.171875 L 7.28125 -8.171875 Z M 4.453125 0 "/></g></g></g><g fill="#000000" fill-opacity="1"><g transform="translate(315.006758, 240.391124)"><g><path d="M 2.1875 -3.84375 L 2.1875 -0.796875 L 6.359375 -0.796875 L 6.359375 0 L 1.234375 0 L 1.234375 -8.171875 L 6.265625 -8.171875 L 6.265625 -7.375 L 2.1875 -7.375 L 2.1875 -4.640625 L 5.78125 -4.640625 L 5.78125 -3.84375 Z M 2.1875 -3.84375 "/></g></g></g></svg>